Source: Tetro.2009.720p.BluRay.x264.DTS-WiKi Thanks!

Subs: Brazilian, Croatian, Czech, Dutch, English, Farsi-Persian, French, Greek, Hebrew, Hungarian, Polish, Portuguese, Romanian, Servian, Spanish, Turkish.

Subs: English hardcoded when needed.

Sample and Screens included.

General
Complete name                            : Tetro 2009 720p BRRip x264 MP4 AAC-CC.mp4
Format                                   : MPEG-4
Format profile                           : Base Media
Codec ID                                 : isom
File size                                : 3.00 GiB
Duration                                 : 2h 7mn
Overall bit rate mode                    : Variable
Overall bit rate                         : 3 381 Kbps
Encoded date                             : UTC 2013-03-11 18:51:39
Tagged date                              : UTC 2013-03-11 18:51:39
Writing application                      : Yamb 2.1.0.0 

Video
ID                                       : 1
Format                                   : AVC
Format/Info                              : Advanced Video Codec
Format profile                           : High@L4.1
Format settings, CABAC                   : Yes
Format settings, ReFrames                : 5 frames
Codec ID                                 : avc1
Codec ID/Info                            : Advanced Video Coding
Duration                                 : 2h 7mn
Bit rate                                 : 3 002 Kbps
Maximum bit rate                         : 19.0 Mbps
Width                                    : 1 280 pixels
Height                                   : 544 pixels
Display aspect ratio                     : 2.35:1
Frame rate mode                          : Variable
Frame rate                               : 23.963 fps
Minimum frame rate                       : 13.649 fps
Maximum frame rate                       : 24.390 fps
Color space                              : YUV
Chroma subsampling                       : 4:2:0
Bit depth                                : 8 bits
Scan type                                : Progressive
Bits/(Pixel*Frame)                       : 0.180
Stream size                              : 2.65 GiB (89%)
Writing library                          : x264 core 112
Encoding settings                        : cabac=1 / ref=5 / deblock=1:0:0 / analyse=0x3:0x113 / me=hex / subme=7 / psy=1 / psy_rd=1.00:0.00 / mixed_ref=1 / me_range=16 / chroma_me=1 / trellis=1 / 8x8dct=1 / cqm=0 / deadzone=21,11 / fast_pskip=1 / chroma_qp_offset=-2 / threads=3 / sliced_threads=0 / nr=0 / decimate=1 / interlaced=0 / constrained_intra=0 / bframes=5 / b_pyramid=2 / b_adapt=2 / b_bias=0 / direct=1 / weightb=1 / open_gop=0 / weightp=2 / keyint=240 / keyint_min=23 / scenecut=40 / intra_refresh=0 / rc_lookahead=50 / rc=abr / mbtree=1 / bitrate=3002 / ratetol=1.0 / qcomp=0.60 / qpmin=3 / qpmax=51 / qpstep=4 / ip_ratio=1.40 / aq=1:1.00
Encoded date                             : UTC 2013-03-12 06:15:58
Tagged date                              : UTC 2013-03-11 18:55:55
Color primaries                          : BT.709
Transfer characteristics                 : BT.709
Matrix coefficients                      : BT.709

Audio
ID                                       : 2
Format                                   : AAC
Format/Info                              : Advanced Audio Codec
Format profile                           : LC
Codec ID                                 : 40
Duration                                 : 2h 7mn
Bit rate mode                            : Variable
Bit rate                                 : 384 Kbps
Maximum bit rate                         : 855 Kbps
Channel(s)                               : 6 channels
Channel positions                        : Front: L C R, Side: L R, LFE
Sampling rate                            : 48.0 KHz
Compression mode                         : Lossy
Delay relative to video                  : 83ms
Stream size                              : 349 MiB (11%)
Encoded date                             : UTC 2013-03-11 18:55:10
Tagged date                              : UTC 2013-03-11 18:55:55

Enjoy...

Requested by Alorati 

Coming soon: A Boy, Brothers, Touch of Evil, Tropa de Elite 2 and more...